<mxfile host="app.diagrams.net" modified="2023-12-27T15:36:59.206Z" agent="Mozilla/5.0 (Windows NT 10.0; Win64; x64) AppleWebKit/537.36 (KHTML, like Gecko) Chrome/120.0.0.0 Safari/537.36" version="21.3.7" etag="ATSG2S93l4rFTf4vPj3t" type="github">
  <diagram name="Sayfa -1" id="1BoXD105GYraB8-aLWvX">
    <mxGraphModel>
      <root>
        <mxCell id="0" />
        <mxCell id="1" parent="0" />
      </root>
    </mxGraphModel>
  </diagram>
</mxfile>
